HIERARCHY
ROOT Hips
{
	OFFSET 0.00 0.00 0.00
	CHANNELS 6 Xposition Yposition Zposition Yrotation Xrotation Zrotation
	JOINT LHipJoint
	{
		OFFSET	0.0000	0.0000	0.0000
		CHANNELS 3 Yrotation Xrotation Zrotation
		JOINT LeftUpLeg
		{
			OFFSET	1.0138	-0.0809	-0.0827
			CHANNELS 3 Yrotation Xrotation Zrotation
			JOINT LeftLeg
			{
				OFFSET	0.4110	-3.9095	0.3245
				CHANNELS 3 Yrotation Xrotation Zrotation
				JOINT LeftFoot
				{
					OFFSET	0.3810	-4.0555	-0.1470
					CHANNELS 3 Yrotation Xrotation Zrotation
					JOINT LeftToeBase
					{
						OFFSET	0.1396	-0.4462	1.3079
						CHANNELS 3 Yrotation Xrotation Zrotation
						End Site
						{
							OFFSET 0.0161 -0.0248 0.1809
						}
					}
				}
			}
		}
	}
	JOINT LowerBack
	{
		OFFSET	0.0000	0.7977	-0.3873
		CHANNELS 3 Yrotation Xrotation Zrotation
		JOINT Spine
		{
			OFFSET	0.0000	1.4131	0.1715
			CHANNELS 3 Yrotation Xrotation Zrotation
			JOINT Spine1
			{
				OFFSET	0.0000	1.4392	-0.1032
				CHANNELS 3 Yrotation Xrotation Zrotation
				JOINT LeftShoulder
				{
					OFFSET	0.2274	1.0382	0.4032
					CHANNELS 3 Yrotation Xrotation Zrotation
					JOINT LeftArm
					{
						OFFSET	1.4730	-0.2267	-0.0231
						CHANNELS 3 Yrotation Xrotation Zrotation
						JOINT LeftForeArm
						{
							OFFSET	1.6131	-1.8059	0.0081
							CHANNELS 3 Yrotation Xrotation Zrotation
							JOINT LeftHand
							{
								OFFSET	1.2197	-1.2423	1.6317
								CHANNELS 3 Yrotation Xrotation Zrotation
								JOINT LThumb
								{
									OFFSET	0.0109	-0.0753	0.4387
									CHANNELS 3 Yrotation Xrotation Zrotation
									End Site
									{
										OFFSET -0.2090 -0.0868 0.2097
									}
								}
								JOINT LeftFingerBase
								{
									OFFSET	0.1071	-0.1567	0.2607
									CHANNELS 3 Yrotation Xrotation Zrotation
									JOINT LeftHandFinger1
									{
										OFFSET	0.1706	-0.2492	0.6830
										CHANNELS 3 Yrotation Xrotation Zrotation
										End Site
										{
											OFFSET 0.0335 -0.1507 0.2071
										}
									}
								}
							}
						}
					}
				}
				JOINT Neck
				{
					OFFSET	0.0000	1.7498	0.2381
					CHANNELS 3 Yrotation Xrotation Zrotation
					JOINT Neck1
					{
						OFFSET	0.0000	0.5043	0.1959
						CHANNELS 3 Yrotation Xrotation Zrotation
						JOINT Head
						{
							OFFSET	0.0000	0.5044	0.1959
							CHANNELS 3 Yrotation Xrotation Zrotation
							End Site
							{
								OFFSET 0.0000 1.4798 -0.0693
							}
						}
					}
				}
				JOINT RightShoulder
				{
					OFFSET	-0.2274	1.0382	0.4032
					CHANNELS 3 Yrotation Xrotation Zrotation
					JOINT RightArm
					{
						OFFSET	-1.4730	-0.2267	-0.0231
						CHANNELS 3 Yrotation Xrotation Zrotation
						JOINT RightForeArm
						{
							OFFSET	-1.6131	-1.8059	0.0081
							CHANNELS 3 Yrotation Xrotation Zrotation
							JOINT RightHand
							{
								OFFSET	-1.2197	-1.2423	1.6317
								CHANNELS 3 Yrotation Xrotation Zrotation
								JOINT RThumb
								{
									OFFSET	-0.0109	-0.0753	0.4387
									CHANNELS 3 Yrotation Xrotation Zrotation
									End Site
									{
										OFFSET 0.2090 -0.0868 0.2097
									}
								}
								JOINT RightFingerBase
								{
									OFFSET	-0.1071	-0.1567	0.2607
									CHANNELS 3 Yrotation Xrotation Zrotation
									JOINT RightHandFinger1
									{
										OFFSET	-0.1706	-0.2492	0.6830
										CHANNELS 3 Yrotation Xrotation Zrotation
										End Site
										{
											OFFSET -0.0335 -0.1507 0.2071
										}
									}
								}
							}
						}
					}
				}
			}
		}
	}
	JOINT RHipJoint
	{
		OFFSET	0.0000	0.0000	0.0000
		CHANNELS 3 Yrotation Xrotation Zrotation
		JOINT RightUpLeg
		{
			OFFSET	-1.0138	-0.0809	-0.0827
			CHANNELS 3 Yrotation Xrotation Zrotation
			JOINT RightLeg
			{
				OFFSET	-0.4110	-3.9095	0.3245
				CHANNELS 3 Yrotation Xrotation Zrotation
				JOINT RightFoot
				{
					OFFSET	-0.3810	-4.0555	-0.1470
					CHANNELS 3 Yrotation Xrotation Zrotation
					JOINT RightToeBase
					{
						OFFSET	-0.1396	-0.4462	1.3079
						CHANNELS 3 Yrotation Xrotation Zrotation
						End Site
						{
							OFFSET -0.0161 -0.0248 0.1809
						}
					}
				}
			}
		}
	}
}
MOTION
Frames: 6
Frame Time: 0.0333333
-0.0802 8.4525 0.1222 -2.1459 -2.1919 -3.1840 0.0000 -0.0000 0.0000 10.7359 -9.6956 -4.5300 14.4274 25.6204 14.1188 27.5795 -13.1947 -10.1640 0.0000 -4.5895 -0.0000 0.0000 -0.0000 0.0000 0.8259 3.3410 0.0107 1.6545 6.6865 -0.1564 -0.3736 0.7720 2.3134 -21.1616 -2.0298 -32.2677 15.5893 17.8694 0.3338 19.3545 8.1215 -9.7083 35.4808 3.4899 17.6977 -14.9272 27.7380 -18.4942 -15.0510 5.0935 -9.8400 0.1399 -5.5116 -1.1986 0.1399 -5.5116 -1.1986 -6.0770 3.7987 8.4829 2.4081 0.4777 -3.8264 12.8835 -3.4769 32.4409 -19.7698 21.8387 -1.6788 -13.9389 4.2859 11.1756 -32.4825 0.7773 -15.2445 12.4616 26.4227 16.2816 9.4970 -0.1359 5.1364 0.0000 -0.0000 0.0000 -5.6981 -9.8663 3.9952 -12.5466 19.3858 -7.0313 -12.5603 -6.6135 4.9262 -0.0000 -4.2768 0.0000 
-0.0807 8.4530 0.1216 -2.1267 -2.2006 -3.1959 0.0000 -0.0000 0.0000 10.7429 -9.6950 -4.5067 14.4254 25.6154 14.1058 27.5436 -13.1916 -10.1475 -0.0000 -4.5906 0.0000 0.0000 -0.0000 0.0000 0.8326 3.3344 0.0002 1.6674 6.6733 -0.1780 -0.4094 0.7760 2.3414 -21.5380 -2.3090 -31.9085 15.3307 17.6147 0.2599 19.6001 7.8745 -9.8464 35.4809 3.4899 17.6977 -14.9524 27.7511 -18.5169 -15.0602 5.1015 -9.8479 0.1445 -5.5750 -1.1249 0.1445 -5.5750 -1.1249 -6.1877 3.9158 8.5865 2.3612 0.4769 -3.7693 13.0014 -3.5407 32.4020 -19.7961 21.8628 -1.6882 -13.8979 4.3139 11.1753 -32.4824 0.7773 -15.2444 12.4692 26.4271 16.2885 9.4995 -0.1333 5.1385 0.0000 -0.0000 0.0000 -5.6938 -9.8376 4.0088 -12.5421 19.3511 -7.0215 -12.5866 -6.5973 4.9192 -0.0000 -4.2715 -0.0000 
-0.0810 8.4534 0.1207 -2.1001 -2.2150 -3.2124 0.0000 -0.0000 0.0000 10.7609 -9.6993 -4.4662 14.4250 25.6245 14.0755 27.4825 -13.2001 -10.1190 -0.0000 -4.5924 0.0000 0.0000 -0.0000 0.0000 0.8381 3.3271 -0.0105 1.6777 6.6590 -0.2003 -0.4495 0.7841 2.2830 -21.8126 -2.2659 -31.5841 15.0167 17.3041 0.1715 19.8802 7.6610 -9.9050 35.4809 3.4899 17.6977 -14.9733 27.7619 -18.5359 -15.0678 5.1081 -9.8544 0.1417 -5.6032 -1.0713 0.1417 -5.6032 -1.0713 -6.2806 4.0305 8.6750 2.3207 0.4749 -3.7267 13.1418 -3.5831 32.3487 -19.8112 21.8765 -1.6935 -13.8467 4.3465 11.1879 -32.4825 0.7773 -15.2445 12.4774 26.4318 16.2958 9.5024 -0.1304 5.1409 0.0000 -0.0000 0.0000 -5.6867 -9.8019 4.0276 -12.5375 19.3142 -7.0143 -12.6238 -6.5788 4.9151 -0.0000 -4.2684 0.0000 
-0.0811 8.4537 0.1195 -2.0535 -2.2355 -3.2322 0.0000 -0.0000 0.0000 10.7898 -9.7109 -4.4103 14.4272 25.6503 14.0265 27.3832 -13.2228 -10.0734 0.0000 -4.5947 -0.0000 0.0000 -0.0000 0.0000 0.8413 3.3175 -0.0200 1.6836 6.6400 -0.2213 -0.4994 0.7990 2.0699 -21.9547 -1.9938 -31.1885 14.6109 16.9004 0.0598 20.0789 7.4882 -10.0426 35.4809 3.4899 17.6977 -14.9876 27.7695 -18.5488 -15.0731 5.1127 -9.8589 0.1306 -5.6000 -1.0572 0.1306 -5.5999 -1.0572 -6.3610 4.1515 8.7561 2.3101 0.4737 -3.7100 13.3142 -3.5553 32.2804 -19.7229 21.7958 -1.6623 -13.8146 4.4266 11.2046 -32.4824 0.7773 -15.2445 12.4835 26.4353 16.3013 9.5044 -0.1282 5.1426 0.0000 -0.0000 0.0000 -5.6780 -9.7574 4.0493 -12.5335 19.2770 -7.0135 -12.6829 -6.5593 4.9202 0.0000 -4.2667 0.0000 
-0.0803 8.4538 0.1180 -1.9815 -2.2503 -3.2369 0.0000 -0.0000 0.0000 10.8068 -9.7284 -4.3809 14.4288 25.6724 13.9806 27.2751 -13.2447 -10.0166 -0.0000 -4.5971 0.0000 0.0000 -0.0000 0.0000 0.8424 3.3028 -0.0313 1.6851 6.6108 -0.2456 -0.5447 0.8220 1.6391 -21.9432 -1.5333 -30.6298 14.0900 16.3788 -0.0795 20.1724 7.3469 -10.3549 35.4808 3.4900 17.6976 -15.0061 27.7794 -18.5656 -15.0798 5.1186 -9.8648 0.1165 -5.5532 -1.1063 0.1165 -5.5532 -1.1063 -6.4564 4.2820 8.8376 2.3576 0.4745 -3.7292 13.5100 -3.3843 32.2045 -19.3672 21.4690 -1.5374 -13.8404 4.6234 11.2182 -32.4824 0.7773 -15.2444 12.4843 26.4358 16.3021 9.5051 -0.1276 5.1432 0.0000 -0.0000 0.0000 -5.6744 -9.7279 4.0541 -12.5322 19.2562 -7.0277 -12.7607 -6.5430 4.9432 -0.0000 -4.2666 -0.0000 
-0.0775 8.4534 0.1158 -1.8943 -2.2452 -3.1954 0.0000 -0.0000 0.0000 10.7854 -9.7495 -4.4368 14.4283 25.6734 13.9600 27.2115 -13.2514 -9.9595 0.0000 -4.5987 0.0000 0.0000 -0.0000 0.0000 0.8402 3.2800 -0.0526 1.6794 6.5656 -0.2887 -0.5568 0.8511 0.9700 -21.7558 -0.8595 -29.8736 13.4632 15.7459 -0.2410 20.2141 7.2703 -10.7533 35.4808 3.4900 17.6977 -15.0496 27.8016 -18.6049 -15.0957 5.1323 -9.8784 0.1060 -5.4560 -1.2380 0.1060 -5.4561 -1.2380 -6.6118 4.4168 8.9174 2.5248 0.4735 -3.8425 13.7044 -2.7125 32.1912 -17.9000 20.0988 -1.0432 -14.1150 5.2305 11.1739 -32.4824 0.7773 -15.2444 12.4891 26.4385 16.3063 9.5077 -0.1248 5.1454 0.0000 -0.0000 0.0000 -5.6907 -9.7597 4.0061 -12.5382 19.2943 -7.0682 -12.8292 -6.5424 4.9925 0.0000 -4.2713 0.0000 
